<svg width="30" height="34" viewBox="0 0 30 34" fill="none" xmlns="http://www.w3.org/2000/svg">
<path d="M25.7811 20.3984C28.1113 20.3984 30 22.1109 30 24.2233V25.7619C30 27.6211 29.1048 29.3877 27.5487 30.5987C24.6135 32.8833 20.4128 34 14.9939 34C9.57585 34 5.37793 32.8838 2.44746 30.5996C0.893747 29.3885 0 27.6233 0 25.7656V24.2233C0 22.1109 1.88886 20.3984 4.21888 20.3984H25.7811ZM14.8036 0.0116447L14.9945 0C15.7064 0 16.2948 0.479641 16.3878 1.10196L16.4008 1.27496L16.3993 2.54822L22.9629 2.54909C25.2929 2.54909 27.1818 4.26155 27.1818 6.37398V14.0315C27.1818 16.1439 25.2929 17.8564 22.9629 17.8564H7.02482C4.69479 17.8564 2.80593 16.1439 2.80593 14.0315V6.37398C2.80593 4.26155 4.69479 2.54909 7.02482 2.54909L13.5867 2.54822L13.5882 1.27496C13.5882 0.629491 14.1171 0.0960641 14.8036 0.0116447ZM10.7736 7.64894C9.47989 7.64894 8.43111 8.59975 8.43111 9.77265C8.43111 10.9456 9.47989 11.8964 10.7736 11.8964C12.0673 11.8964 13.116 10.9456 13.116 9.77265C13.116 8.59975 12.0673 7.64894 10.7736 7.64894ZM19.1978 7.64894C17.904 7.64894 16.8553 8.59975 16.8553 9.77265C16.8553 10.9456 17.904 11.8964 19.1978 11.8964C20.4916 11.8964 21.5403 10.9456 21.5403 9.77265C21.5403 8.59975 20.4916 7.64894 19.1978 7.64894Z" fill="#E85124"/>
</svg>
