<svg width="32" height="32" viewBox="0 0 32 32" fill="none" xmlns="http://www.w3.org/2000/svg">
<path d="M8.44872 0.5C12.7231 0.5 16.2095 3.96272 16.3901 8.30402L16.3974 8.65789V26.6053C16.3974 29.3086 14.2623 31.5 11.6282 31.5C9.0883 31.5 7.01213 29.4623 6.86707 26.8929L6.85897 26.6053V10.2895C6.85897 9.38838 7.57073 8.65789 8.44872 8.65789C9.264 8.65789 9.93594 9.28775 10.0278 10.0992L10.0385 10.2895V26.6053C10.0385 27.5064 10.7502 28.2368 11.6282 28.2368C12.4435 28.2368 13.1154 27.6071 13.2072 26.7955L13.2179 26.6053V8.65789C13.2179 5.95461 11.0827 3.76316 8.44872 3.76316C5.90882 3.76316 3.83264 5.80087 3.68758 8.3703L3.67949 8.65789V23.3421C3.67949 24.2432 2.96773 24.9737 2.08974 24.9737C1.27446 24.9737 0.602523 24.3439 0.510699 23.5323L0.5 23.3421V8.65789C0.5 4.15242 4.05877 0.5 8.44872 0.5ZM21.1667 23.3421H24.3462C25.2242 23.3421 25.9359 24.0726 25.9359 24.9737C25.9359 25.8104 25.3223 26.5 24.5315 26.5943L24.3462 26.6053H21.1667C20.2887 26.6053 19.5769 25.8748 19.5769 24.9737C19.5769 24.137 20.1906 23.4473 20.9813 23.353L21.1667 23.3421ZM21.1667 16.8158H29.9103C30.7883 16.8158 31.5 17.5462 31.5 18.4474C31.5 19.284 30.8864 19.9737 30.0956 20.068L29.9103 20.0789H21.1667C20.2887 20.0789 19.5769 19.3485 19.5769 18.4474C19.5769 17.6107 20.1906 16.921 20.9813 16.8267L21.1667 16.8158ZM21.1667 10.2895H29.9103C30.7883 10.2895 31.5 11.02 31.5 11.9211C31.5 12.7577 30.8864 13.4474 30.0956 13.5417L29.9103 13.5526H21.1667C20.2887 13.5526 19.5769 12.8222 19.5769 11.9211C19.5769 11.0843 20.1906 10.3947 20.9813 10.3005L21.1667 10.2895ZM21.1667 3.76316H29.9103C30.7883 3.76316 31.5 4.49365 31.5 5.39474C31.5 6.23148 30.8864 6.92109 30.0956 7.01534L29.9103 7.02632H21.1667C20.2887 7.02632 19.5769 6.29583 19.5769 5.39474C19.5769 4.558 20.1906 3.86838 20.9813 3.77414L21.1667 3.76316Z" fill="#E85124"/>
</svg>
