<svg width="31" height="30" viewBox="0 0 31 30" fill="none" xmlns="http://www.w3.org/2000/svg">
<path d="M29.5213 12.3894V6.91139L15.2743 14.4953C14.9526 14.6665 14.5688 14.6665 14.247 14.4953L0 6.91139V19.1233L0.00758708 19.3999C0.148714 21.9633 2.23915 23.9979 4.79722 23.9979H14.3429C14.614 23.3651 15.0004 22.787 15.4844 22.2952L24.1967 13.4424C25.6362 11.9796 27.7555 11.6286 29.5213 12.3894ZM24.7241 0H4.79722L4.5228 0.00784423C2.16143 0.143162 0.256629 2.01389 0.0238976 4.38494L14.7607 12.2289L29.4974 4.38494C29.2558 1.9227 27.2109 0 24.7241 0ZM25.2406 14.503L16.5281 23.3558C16.0202 23.8719 15.6599 24.5186 15.4856 25.2269L14.81 27.9727C14.5162 29.1667 15.5808 30.2484 16.7559 29.9498L19.4581 29.2633C20.155 29.0863 20.7914 28.7202 21.2995 28.204L30.0118 19.3511C31.3294 18.0124 31.3294 15.8418 30.0118 14.503C28.6943 13.164 26.5581 13.164 25.2406 14.503Z" fill="#E85124"/>
</svg>
