<svg width="20" height="18" viewBox="0 0 20 18" fill="none" xmlns="http://www.w3.org/2000/svg">
<path d="M18.2973 7.5H19.25C19.5184 7.5 19.7727 7.43958 20 7.33159V14.75C20 16.483 18.6435 17.8992 16.9344 17.9949L16.75 18H3.25C1.51697 18 0.10075 16.6435 0.00514007 14.9344L0 14.75V6.608L9.652 11.6644C9.87 11.7785 10.13 11.7785 10.348 11.6644L18.2973 7.5ZM10.5253 2H3.25L3.06409 2.00523C1.46432 2.09545 0.17386 3.34271 0.0161901 4.92355L10 10.1533L15.0653 7.5H11.75C10.7835 7.5 10 6.7165 10 5.75C10 5.2603 10.2011 4.81759 10.5253 4.49996C10.2011 4.18249 10 3.74 10 3.25C10 2.76033 10.2011 2.31763 10.5253 2ZM19.25 0C19.6401 0 19.9607 0.29785 19.9966 0.67855C19.9989 0.70207 20 0.7259 20 0.75C20 0.80731 19.9936 0.86311 19.9814 0.91674C19.9056 1.2507 19.6069 1.5 19.25 1.5H11.75C11.6501 1.5 11.5548 1.48047 11.4677 1.44503C11.1934 1.3335 11 1.06433 11 0.75C11 0.42345 11.2087 0.14564 11.5 0.04268C11.5782 0.01504 11.6623 0 11.75 0H19.25ZM19.25 2.5C19.3201 2.5 19.3879 2.50961 19.4522 2.52757C19.7682 2.61583 20 2.90584 20 3.25C20 3.66421 19.6642 4 19.25 4H11.75C11.7131 4 11.6769 3.99734 11.6414 3.99219C11.2787 3.93958 11 3.62733 11 3.25C11 2.83579 11.3358 2.5 11.75 2.5H19.25ZM11 5.75C11 5.33579 11.3358 5 11.75 5H19.25C19.6642 5 20 5.33579 20 5.75C20 6.16421 19.6642 6.5 19.25 6.5H11.75C11.3358 6.5 11 6.16421 11 5.75Z" fill="#E85124"/>
</svg>
