<svg width="62" height="62" viewBox="0 0 62 62" fill="none" xmlns="http://www.w3.org/2000/svg">
<path d="M32.0512 6.41213C35.7709 5.41317 39.595 7.62101 40.5924 11.343L49.1379 43.2419C50.1347 46.9641 47.9267 50.7898 44.2064 51.7862L29.9668 55.5995C26.2478 56.5957 22.4259 54.3867 21.43 50.6655L12.8954 18.7755C11.8999 15.0557 14.1052 11.2324 17.8222 10.234L32.0512 6.41213ZM39.3335 41.1629C39.0013 39.9225 37.7269 39.1865 36.4872 39.5188L30.5016 41.1235L30.2026 41.2258C29.1467 41.6682 28.5539 42.8342 28.8585 43.9714C29.1907 45.2118 30.4648 45.9478 31.7044 45.6155L37.69 44.0108L37.9893 43.9085C39.045 43.4661 39.6377 42.3001 39.3335 41.1629ZM51.6904 1.21092C52.3057 0.0839486 53.7177 -0.330587 54.844 0.285062C55.8324 0.825375 57.1824 1.86402 58.5119 3.47985C59.8505 5.1064 60.8804 7.02561 61.4744 9.244C62.3401 12.4775 62.0776 15.5548 61.1168 18.2882C60.7806 19.2444 60.4314 19.958 60.1659 20.3945C59.4988 21.4916 58.0692 21.8397 56.9726 21.1721C55.9678 20.5602 55.5916 19.3072 56.0499 18.2577L56.1955 17.9771C56.3021 17.8022 56.5106 17.3755 56.7322 16.7451C57.4033 14.8367 57.5861 12.6926 56.985 10.4474C56.5704 8.89965 55.8566 7.56884 54.9242 6.43588C54.0127 5.32837 53.1216 4.64257 52.6159 4.36621C51.4896 3.75056 51.0753 2.3379 51.6904 1.21092ZM48.0416 7.57051C48.8197 6.54901 50.2775 6.35177 51.2984 7.13C51.7118 7.44508 52.2469 7.95237 52.7779 8.65334C53.3623 9.42499 53.8131 10.2814 54.0672 11.2295C54.4294 12.5826 54.355 13.9334 54.0272 15.2093L53.8667 15.7602C53.8141 15.9203 53.7629 16.0563 53.7171 16.1659C53.2213 17.3505 51.8599 17.9086 50.6759 17.4126C49.5909 16.9579 49.0316 15.7752 49.3278 14.6689L49.4827 14.2088C49.4958 14.1643 49.5106 14.1116 49.5258 14.0517C49.6714 13.4852 49.7037 12.9026 49.5779 12.4334C49.493 12.117 49.3185 11.7853 49.0737 11.4623C48.8897 11.219 48.7075 11.0293 48.5839 10.9161L48.4819 10.8292C47.461 10.051 47.2639 8.59202 48.0416 7.57051ZM1.68512 41.5718C2.32681 40.4597 3.74803 40.0787 4.85951 40.7208C5.87837 41.3095 6.28328 42.5533 5.84943 43.6133L5.55458 44.212C5.45934 44.4253 5.34188 44.7204 5.21986 45.0875C4.58331 47.0035 4.42309 49.1712 5.03408 51.4526C5.44973 53.0049 6.15974 54.3523 7.0841 55.5093C7.88205 56.5082 8.66469 57.1813 9.18885 57.531L9.39694 57.6612C10.5081 58.3039 10.8883 59.726 10.2461 60.8377C9.60395 61.9498 8.18257 62.3302 7.07137 61.6875C6.09768 61.1245 4.76569 60.0552 3.45371 58.413C2.14431 56.7739 1.134 54.8567 0.544794 52.6565C-0.322431 49.4179 -0.0952218 46.3437 0.809495 43.6205C1.11835 42.691 1.43981 41.9972 1.68512 41.5718ZM8.30052 45.7432C8.79191 44.5567 10.1514 43.9937 11.337 44.4854C12.4238 44.9362 12.9873 46.1168 12.6952 47.2242L12.543 47.6821C12.5302 47.7261 12.5158 47.7782 12.5008 47.8377C12.3568 48.4045 12.3258 48.9895 12.4526 49.4629C12.5379 49.7816 12.7127 50.1155 12.9569 50.4407C13.1411 50.6859 13.323 50.8772 13.4466 50.9916L13.5487 51.0794C14.5655 51.8631 14.7549 53.323 13.9718 54.3405C13.1887 55.3577 11.7296 55.5475 10.7128 54.7637C10.3018 54.4472 9.76972 53.9378 9.2418 53.235C8.66289 52.4642 8.21606 51.6104 7.96326 50.6664C7.6013 49.3147 7.673 47.9658 7.9961 46.6928L8.1535 46.1459C8.20534 45.9872 8.25544 45.852 8.30052 45.7432Z" fill="#E85124"/>
</svg>
