<svg width="30" height="30" viewBox="0 0 30 30" fill="none" xmlns="http://www.w3.org/2000/svg">
<path d="M14.1688 18.75C14.1688 17.1392 12.863 15.8333 11.2521 15.8333H7.91877C6.30795 15.8333 5.0021 17.1392 5.0021 18.75V22.0833C5.0021 23.6942 6.30795 25 7.91877 25H11.2521C12.863 25 14.1688 23.6942 14.1688 22.0833V18.75ZM24.9978 18.75C24.9978 17.1392 23.692 15.8333 22.0812 15.8333H18.7478C17.137 15.8333 15.8312 17.1392 15.8312 18.75V22.0833C15.8312 23.6942 17.137 25 18.7478 25H22.0812C23.692 25 24.9978 23.6942 24.9978 22.0833V18.75ZM14.1667 7.91667C14.1667 6.30583 12.8608 5 11.25 5H7.91667C6.30583 5 5 6.30583 5 7.91667V11.25C5 12.8608 6.30583 14.1667 7.91667 14.1667H11.25C12.8608 14.1667 14.1667 12.8608 14.1667 11.25V7.91667ZM24.9958 7.91667C24.9958 6.30583 23.69 5 22.0792 5H18.7458C17.135 5 15.8292 6.30583 15.8292 7.91667V11.25C15.8292 12.8608 17.135 14.1667 18.7458 14.1667H22.0792C23.69 14.1667 24.9958 12.8608 24.9958 11.25V7.91667ZM5.41667 0C2.42512 0 0 2.42512 0 5.41667V24.5833C0 27.5748 2.42512 30 5.41667 30H24.5833C27.5748 30 30 27.5748 30 24.5833V5.41667C30 2.42512 27.5748 0 24.5833 0H5.41667ZM2.5 5.41667C2.5 3.80583 3.80583 2.5 5.41667 2.5H24.5833C26.1942 2.5 27.5 3.80583 27.5 5.41667V24.5833C27.5 26.1942 26.1942 27.5 24.5833 27.5H5.41667C3.80583 27.5 2.5 26.1942 2.5 24.5833V5.41667Z" fill="#E85124"/>
</svg>
