<svg width="32" height="30" viewBox="0 0 32 30" fill="none" xmlns="http://www.w3.org/2000/svg">
<path d="M5.2981 0C2.64818 0 0.5 2.42452 0.5 5.41534V20.2647L3.51839 14.3642C4.63921 12.1732 6.71058 10.8234 8.95222 10.8234H27.0741V9.58099C27.0741 6.59017 24.9259 4.16565 22.276 4.16565H14.6148L11.8969 1.09808C11.2739 0.394987 10.429 0 9.54801 0H5.2981ZM8.95222 13.3227H28.1733C30.7303 13.3227 32.3286 16.447 31.05 18.9464L26.5676 27.7089C25.8424 29.1265 24.502 30 23.0515 30H3.83053C1.27344 30 -0.324743 26.8758 0.953797 24.3764L5.43622 15.6138C6.16145 14.1962 7.50175 13.3227 8.95222 13.3227Z" fill="#E85124"/>
</svg>
