<svg width="30" height="34" viewBox="0 0 30 34" fill="none" xmlns="http://www.w3.org/2000/svg">
<path d="M5.625 5.1V8.5H2.8125C1.25919 8.5 0 9.64167 0 11.05V27.2C0 30.9555 3.35786 34 7.5 34H18.7678C17.5873 32.74 16.875 31.108 16.875 29.325V5.1C16.875 4.53157 16.7724 3.98485 16.5831 3.47424C17.0991 2.90965 17.8781 2.55 18.75 2.55C20.3032 2.55 21.5625 3.69167 21.5625 5.1V8.5H19.6875V29.325C19.6875 31.907 21.996 34 24.8438 34C27.6915 34 30 31.907 30 29.325V11.05C30 9.64167 28.7407 8.5 27.1875 8.5H24.375V5.1C24.375 2.28335 21.8567 0 18.75 0C17.3094 0 15.9952 0.491062 15 1.29863C14.0048 0.491062 12.6908 0 11.25 0C8.14341 0 5.625 2.28335 5.625 5.1ZM8.4375 5.1C8.4375 3.69167 9.69669 2.55 11.25 2.55C12.8033 2.55 14.0625 3.69167 14.0625 5.1V8.5H8.4375V5.1Z" fill="#E85124"/>
</svg>
