<svg width="17" height="18" viewBox="0 0 17 18" fill="none" xmlns="http://www.w3.org/2000/svg">
<path d="M13.4963 0C15.1521 0 16.4944 1.34229 16.4944 2.99808C16.4944 4.65387 15.1521 5.99615 13.4963 5.99615C12.6541 5.99615 11.893 5.6489 11.3484 5.08976L5.89132 8.20935C5.95967 8.46065 5.99614 8.72515 5.99614 8.99805C5.99614 9.27105 5.95967 9.53545 5.89132 9.78675L11.3492 12.9057C11.8937 12.347 12.6545 12 13.4963 12C15.1521 12 16.4944 13.3422 16.4944 14.998C16.4944 16.6538 15.1521 17.9962 13.4963 17.9962C11.8405 17.9962 10.4982 16.6538 10.4982 14.998C10.4982 14.7251 10.5347 14.4606 10.6031 14.2093L5.14594 11.0897C4.60134 11.6488 3.84026 11.9962 2.99807 11.9962C1.34228 11.9962 0 10.6538 0 8.99805C0 7.34225 1.34228 6 2.99807 6C3.83988 6 4.60066 6.34695 5.14521 6.90565L10.6031 3.78679C10.5347 3.53548 10.4982 3.27104 10.4982 2.99808C10.4982 1.34229 11.8405 0 13.4963 0Z" fill="#E85124"/>
</svg>
