<svg width="30" height="34" viewBox="0 0 30 34" fill="none" xmlns="http://www.w3.org/2000/svg">
<path d="M15 0C11.3226 0 8.30456 2.55962 7.99492 5.82105C3.23989 8.1021 0 12.633 0 17.85V20.4H30V17.85C30 12.633 26.7602 8.1021 22.005 5.82105C21.6954 2.55962 18.6774 0 15 0ZM30 23.3143H10.3125V25.925C10.3125 26.6291 9.68289 27.2 8.90625 27.2C8.12961 27.2 7.5 26.6291 7.5 25.925V23.3143H0V28.475C0 31.5263 2.72826 34 6.09375 34H23.9062C27.2717 34 30 31.5263 30 28.475V23.3143ZM15 4.25C13.6918 4.25 12.4228 4.40183 11.2132 4.6871C11.901 3.42108 13.3382 2.55 15 2.55C16.6618 2.55 18.099 3.42108 18.7868 4.6871C17.5772 4.40183 16.3082 4.25 15 4.25ZM7.5 14.3084C7.5 12.0394 9.52871 10.2 12.0313 10.2H17.9687C20.4712 10.2 22.5 12.0394 22.5 14.3084C22.5 15.7949 21.1708 17 19.5313 17H10.4687C8.82915 17 7.5 15.7949 7.5 14.3084ZM12.0313 12.75C11.082 12.75 10.3125 13.4477 10.3125 14.3084C10.3125 14.3866 10.3825 14.45 10.4687 14.45H19.5313C19.6176 14.45 19.6875 14.3866 19.6875 14.3084C19.6875 13.4477 18.918 12.75 17.9687 12.75H12.0313Z" fill="#E85124"/>
</svg>
