<svg width="32" height="30" viewBox="0 0 32 30" fill="none" xmlns="http://www.w3.org/2000/svg">
<path d="M12.8 20.25V27H5.2C2.32811 27 0 24.8174 0 22.125V8.25H28.8V13.3179C28.0392 12.7289 27.0637 12.375 26 12.375L20.1637 12.3808C17.8435 12.4959 16 14.2962 16 16.5V16.575C14.1742 16.9224 12.8 18.4358 12.8 20.25ZM28.8 4.875C28.8 2.18261 26.4718 0 23.6 0H5.2C2.32811 0 0 2.18261 0 4.875V6H28.8V4.875ZM17.6 18H16.8C15.4746 18 14.4 19.0074 14.4 20.25V22.5H18.4V22.125C18.4 21.5037 18.9373 21 19.6 21C20.2627 21 20.8 21.5037 20.8 22.125V22.5H25.6V22.125C25.6 21.5037 26.1373 21 26.8 21C27.4627 21 28 21.5037 28 22.125V22.5H32V20.25C32 19.0074 30.9254 18 29.6 18H28.8V16.5C28.8 15.0503 27.5464 13.875 26 13.875H20.4C18.8536 13.875 17.6 15.0503 17.6 16.5V18ZM20 16.5C20 16.2929 20.179 16.125 20.4 16.125H26C26.221 16.125 26.4 16.2929 26.4 16.5V18H20V16.5ZM14.4 27.75V24.75H18.4V25.875C18.4 26.4963 18.9373 27 19.6 27C20.2627 27 20.8 26.4963 20.8 25.875V24.75H25.6V25.875C25.6 26.4963 26.1373 27 26.8 27C27.4627 27 28 26.4963 28 25.875V24.75H32V27.75C32 28.9926 30.9254 30 29.6 30H16.8C15.4746 30 14.4 28.9926 14.4 27.75Z" fill="#E85124"/>
</svg>
