<svg width="45" height="48" viewBox="0 0 45 48" fill="none" xmlns="http://www.w3.org/2000/svg">
<path d="M12.5 2.26249C12.5 1.2891 13.3395 0.5 14.375 0.5H18.125C19.1605 0.5 20 1.2891 20 2.26249V2.84999H23.125C24.1605 2.84999 25 3.63909 25 4.61248V8.80627C25.0213 8.80749 25.0423 8.80902 25.0635 8.8109C30.3423 9.27935 35.2263 11.6407 38.7015 15.4047C42.1768 19.1687 43.9765 24.0462 43.7273 29.0246C43.4778 34.0031 41.1983 38.7 37.3618 42.1401C36.6145 42.8104 35.8192 43.423 34.9837 43.9748H43.125C44.1605 43.9748 45 44.7639 45 45.7373C45 46.7106 44.1605 47.4998 43.125 47.4998H23.198C23.1735 47.4998 23.1493 47.5 23.125 47.5C23.1175 47.5 23.1103 47.4998 23.1028 47.4998H1.875C0.839475 47.4998 0 46.7106 0 45.7373C0 44.7639 0.839475 43.9748 1.875 43.9748H23.1923C27.506 43.9586 31.6507 42.39 34.7732 39.5897C37.9122 36.7749 39.7773 32.932 39.9813 28.8587C40.1855 24.7855 38.7127 20.7947 35.8695 17.7152C33.0895 14.7043 29.208 12.7904 25 12.3483V24.5874C25 25.5607 24.1605 26.3499 23.125 26.3499H21.25V28.6999C21.25 31.2957 19.0115 33.3998 16.25 33.3998C13.4886 33.3998 11.25 31.2957 11.25 28.6999V26.3499H9.375C8.33948 26.3499 7.5 25.5607 7.5 24.5874V4.61248C7.5 3.63909 8.33948 2.84999 9.375 2.84999H12.5V2.26249ZM15 26.3499V28.6999C15 29.3487 15.5596 29.8749 16.25 29.8749C16.9404 29.8749 17.5 29.3487 17.5 28.6999V26.3499H15ZM6.875 36.9248C5.83948 36.9248 5 37.7139 5 38.6873C5 39.6607 5.83948 40.4498 6.875 40.4498H25.625C26.6605 40.4498 27.5 39.6607 27.5 38.6873C27.5 37.7139 26.6605 36.9248 25.625 36.9248H6.875Z" fill="#FF5F0F"/>
</svg>
