<svg width="45" height="48" viewBox="0 0 45 48" fill="none" xmlns="http://www.w3.org/2000/svg">
<path d="M6.61776 13.9899C6.46283 13.7861 6.29513 13.5918 6.11545 13.4083C5.44649 12.7251 4.62982 12.2105 3.73066 11.9054L0.778223 10.9292C0.550673 10.8475 0.353615 10.696 0.214243 10.4956C0.0748501 10.2953 0 10.0558 0 9.81032C0 9.56483 0.0748501 9.32538 0.214243 9.12499C0.353615 8.92458 0.550673 8.77312 0.778223 8.69144L3.73066 7.71524C4.61731 7.40377 5.42116 6.88786 6.0793 6.20785C6.71941 5.5465 7.20486 4.74735 7.50001 3.86979L7.52451 3.79542L8.48406 0.79174C8.56433 0.560231 8.71322 0.359758 8.91019 0.217954C9.10716 0.0761503 9.34253 0 9.58382 0C9.82512 0 10.0605 0.0761503 10.2575 0.217954C10.4544 0.359758 10.6033 0.560231 10.6836 0.79174L11.6432 3.79542C11.9415 4.70861 12.4451 5.53841 13.114 6.21885C13.7828 6.89931 14.5985 7.41169 15.4961 7.71524L18.4485 8.69144L18.5075 8.70647C18.7351 8.78813 18.9321 8.93961 19.0715 9.14C19.2109 9.34039 19.2857 9.57984 19.2857 9.82533C19.2857 10.0708 19.2109 10.3103 19.0715 10.5107C18.9321 10.7111 18.7351 10.8625 18.5075 10.9442L15.5551 11.9204C14.6575 12.224 13.8419 12.7363 13.173 13.4168C12.5042 14.0972 12.0006 14.927 11.7022 15.8402L10.7427 18.8439C10.734 18.8689 10.7245 18.8935 10.7143 18.9177C10.6297 19.118 10.4922 19.2912 10.3165 19.4177C10.1195 19.5595 9.88418 19.6357 9.64287 19.6357C9.40157 19.6357 9.16622 19.5595 8.96924 19.4177C8.77227 19.2759 8.62337 19.0754 8.54309 18.8439L7.58356 15.8402C7.36677 15.1703 7.0396 14.5449 6.61776 13.9899ZM23.1063 22.2825L21.4661 21.7402C20.9675 21.5715 20.5143 21.2869 20.1427 20.9088C19.7711 20.5308 19.4913 20.0698 19.3256 19.5625L18.7925 17.8938C18.7479 17.7652 18.6652 17.6538 18.5558 17.575C18.4463 17.4962 18.3156 17.4539 18.1815 17.4539C18.0475 17.4539 17.9167 17.4962 17.8073 17.575C17.6978 17.6538 17.6151 17.7652 17.5705 17.8938L17.0375 19.5625C16.875 20.0662 16.6002 20.5249 16.2346 20.9027C15.8689 21.2805 15.4223 21.5671 14.9297 21.7402L13.2895 22.2825C13.1631 22.3279 13.0536 22.4119 12.9762 22.5234C12.8988 22.6347 12.8572 22.7678 12.8572 22.9041C12.8572 23.0405 12.8988 23.1736 12.9762 23.2848C13.0536 23.3961 13.1631 23.4803 13.2895 23.5257L14.9297 24.0681C15.4293 24.2376 15.883 24.5234 16.2546 24.903C16.6263 25.2824 16.9056 25.7452 17.0702 26.254L17.6033 27.9228C17.6479 28.0513 17.7307 28.1628 17.8401 28.2415C17.9495 28.3203 18.0803 28.3626 18.2143 28.3626C18.3484 28.3626 18.4791 28.3203 18.5886 28.2415C18.698 28.1628 18.7807 28.0513 18.8253 27.9228L19.3584 26.254C19.5243 25.7467 19.8039 25.2857 20.1755 24.9076C20.547 24.5297 21.0003 24.245 21.4989 24.0764L23.139 23.534C23.2655 23.4886 23.375 23.4046 23.4525 23.2931C23.5299 23.1818 23.5715 23.0488 23.5715 22.9124C23.5715 22.776 23.5299 22.643 23.4525 22.5317C23.375 22.4204 23.2655 22.3362 23.139 22.2908L23.1063 22.2825ZM23.85 20.2226C24.3954 20.4215 24.867 20.7873 25.2 21.2698L25.1143 21.3789C25.4495 21.8564 25.6295 22.4285 25.6295 23.0152C25.6295 23.6021 25.4495 24.1741 25.1143 24.6515C24.7755 25.1515 24.287 25.5266 23.7215 25.7205L22.0929 26.2441C21.9103 26.3116 21.7428 26.4154 21.6 26.5496C21.473 26.6903 21.3714 26.8528 21.3 27.0296L20.7643 28.7531C20.5689 29.3084 20.2098 29.7886 19.7358 30.1276C19.2668 30.4689 18.7049 30.6523 18.1286 30.6523C17.5523 30.6523 16.9904 30.4689 16.5215 30.1276C16.0365 29.7762 15.6698 29.2811 15.4715 28.7095L14.9572 27.0514C14.8965 26.8629 14.7938 26.6912 14.6572 26.5496C14.519 26.4202 14.3594 26.3168 14.1857 26.2441L13.0312 25.8721L6.30222 32.7241C5.43151 33.6106 4.81951 34.7259 4.53429 35.9455L2.1866 45.9847C2.05734 46.5374 2.21898 47.119 2.61361 47.5207C3.00826 47.9225 3.57937 48.0871 4.12229 47.9555L13.9821 45.5654C15.1804 45.2748 16.276 44.6515 17.147 43.7646L38.5715 21.9489C40.0259 23.4408 40.0224 25.8506 38.5614 27.3381L34.7399 31.229C34.1122 31.868 34.1122 32.9041 34.7399 33.5431C35.3675 34.1822 36.3849 34.1822 37.0126 33.5431L40.8341 29.6522C43.5507 26.8867 43.5541 22.4047 40.8442 19.6346L42.7544 17.6895C45.7486 14.6406 45.7486 9.69759 42.7542 6.64883C39.7593 3.5998 34.904 3.59993 31.9096 6.64915L21.0521 17.7047L21.4286 18.8699C21.4706 19.046 21.5512 19.2101 21.6643 19.3499C21.7946 19.4844 21.957 19.5822 22.1358 19.6335L23.7 20.2226H23.85Z" fill="#FF5F0F"/>
</svg>
