<svg width="45" height="48" viewBox="0 0 45 48" fill="none" xmlns="http://www.w3.org/2000/svg">
<path d="M15.9278 0.5C14.8051 0.5 13.7064 0.609299 12.6429 0.818237C11.93 0.958274 11.374 1.5089 11.2358 2.21162L10.3769 6.579C10.3079 6.92981 9.93954 7.13927 9.59652 7.02268L5.32288 5.57036C4.63728 5.33736 3.87666 5.53478 3.39679 6.07027C1.94558 7.68968 0.812028 9.59422 0.0942889 11.6893C-0.137782 12.3667 0.0687044 13.115 0.617021 13.5837L4.03594 16.5058C4.30999 16.74 4.30999 17.1589 4.03594 17.3931L0.616711 20.3154C0.0684421 20.784 -0.138068 21.5323 0.0939309 22.2098C0.811503 24.3048 1.94489 26.2092 3.3959 27.8289C3.87577 28.3644 4.63645 28.5618 5.32209 28.3287L9.59652 26.8762C9.93954 26.7596 10.3079 26.969 10.3769 27.3198L11.236 31.6885C11.3742 32.3911 11.9303 32.9418 12.6431 33.0818C13.7066 33.2907 14.8052 33.4 15.9278 33.4C17.0583 33.4 18.1644 33.2891 19.2347 33.0773C19.9466 32.9366 20.5015 32.3864 20.6394 31.6845L21.4979 27.3198C21.5669 26.969 21.9351 26.7596 22.2783 26.8762L26.5381 28.3238C27.224 28.5569 27.9848 28.3592 28.4648 27.8232C29.9165 26.2012 31.0502 24.2937 31.7666 22.1957C31.9979 21.5186 31.7912 20.7711 31.2432 20.3027L27.8388 17.3931C27.5648 17.1589 27.5648 16.74 27.8388 16.5058L31.243 13.5963C31.7907 13.1281 31.9974 12.3805 31.7661 11.7034C31.0497 9.60519 29.9161 7.6977 28.4638 6.07585C27.9841 5.53993 27.223 5.34225 26.5371 5.57532L22.2783 7.02268C21.9351 7.13927 21.5669 6.92981 21.4979 6.57903L20.6397 2.21552C20.5017 1.5137 19.9468 0.963443 19.2352 0.822631C18.1646 0.610826 17.0584 0.5 15.9278 0.5ZM11.7535 16.95C11.7535 14.679 13.6233 12.8378 15.93 12.8378C18.2367 12.8378 20.1065 14.679 20.1065 16.95C20.1065 19.2211 18.2367 21.0623 15.93 21.0623C13.6233 21.0623 11.7535 19.2211 11.7535 16.95ZM26.457 30.5419C26.7491 30.1624 27.2615 30.0343 27.7185 30.1897L30.7244 31.2112C31.348 31.4232 32.0179 31.0425 32.1432 30.4047L32.748 27.3299C32.8399 26.8618 33.2095 26.4886 33.6902 26.4304C34.126 26.3773 34.5699 26.35 35.0202 26.35C35.4706 26.35 35.9142 26.3773 36.35 26.4304C36.8307 26.4886 37.2004 26.8618 37.2925 27.3299L37.897 30.4047C38.0225 31.0425 38.6922 31.4232 39.3161 31.2112L42.3217 30.1897C42.779 30.0343 43.2912 30.1624 43.5833 30.5419C44.1181 31.2364 44.5675 31.9978 44.9167 32.8113C45.1052 33.2501 44.9618 33.7513 44.5964 34.0636L42.1929 36.1178C41.6945 36.5438 41.6945 37.3052 42.1929 37.7313L44.5966 39.7859C44.962 40.098 45.1054 40.5992 44.9171 41.038C44.568 41.8513 44.1186 42.6127 43.584 43.3071C43.2919 43.6867 42.7795 43.815 42.3222 43.6596L39.3161 42.6378C38.6922 42.4259 38.0225 42.8066 37.897 43.4444L37.2923 46.5201C37.2001 46.9882 36.8305 47.3613 36.3498 47.4196C35.9142 47.4727 35.4703 47.5 35.0202 47.5C34.5699 47.5 34.1262 47.4727 33.6904 47.4196C33.2098 47.3613 32.8401 46.9882 32.748 46.5201L32.1432 43.4444C32.0179 42.8066 31.348 42.4259 30.7244 42.6378L27.718 43.6596C27.2608 43.815 26.7486 43.6867 26.4565 43.3071C25.9219 42.6127 25.4723 41.8513 25.1233 41.038C24.935 40.5992 25.0785 40.098 25.4439 39.7857L27.8476 37.7313C28.3457 37.3052 28.3457 36.5438 27.8476 36.1178L25.4441 34.0636C25.0787 33.7513 24.9353 33.2501 25.1236 32.8113C25.4727 31.998 25.9224 31.2364 26.457 30.5419ZM38.0042 36.925C38.0042 35.3021 36.6679 33.9863 35.0198 33.9863C33.3713 33.9863 32.0351 35.3021 32.0351 36.925C32.0351 38.5481 33.3713 39.8639 35.0198 39.8639C36.6679 39.8639 38.0042 38.5481 38.0042 36.925Z" fill="#FF5F0F"/>
</svg>
