<svg width="45" height="48" viewBox="0 0 45 48" fill="none" xmlns="http://www.w3.org/2000/svg">
<path d="M24.4392 13.2817C26.679 10.8927 30.3105 10.8927 32.5503 13.2817C34.79 15.6707 34.79 19.544 32.5503 21.933C30.3105 24.322 26.679 24.322 24.4392 21.933C22.1992 19.544 22.1992 15.6707 24.4392 13.2817ZM30.1168 15.8771C29.221 14.9215 27.7683 14.9215 26.8724 15.8771C25.9766 16.8327 25.9766 18.382 26.8724 19.3376C27.7683 20.2933 29.221 20.2933 30.1168 19.3376C31.0129 18.382 31.0129 16.8327 30.1168 15.8771ZM39.6736 1.24543C41.6578 1.90225 43.2117 3.55894 43.8283 5.67507L44.3019 7.30062C46.0089 13.159 44.531 19.5439 40.464 23.8818L38.1746 26.3239C40.5316 29.6752 40.2809 34.452 37.4228 37.5004L34.5723 40.5407C33.9004 41.2574 32.8109 41.2574 32.1389 40.5407L28.4921 36.6513L28.0865 37.0837C26.5187 38.7562 23.9767 38.7562 22.4089 37.0837L21.2914 35.892L19.4302 39.294C19.1613 39.7856 18.694 40.1162 18.1647 40.1893C17.6357 40.2623 17.1047 40.0692 16.7274 39.6669L7.8052 30.1504C7.43032 29.7506 7.24919 29.1888 7.31426 28.6274C7.37934 28.0664 7.68336 27.5684 8.13829 27.2779L11.3145 25.2506L10.2347 24.0989C8.6668 22.4266 8.6668 19.7151 10.2347 18.0429L10.6472 17.6029L6.99725 13.7098C6.32529 12.9931 6.32529 11.8311 6.99725 11.1144L9.84781 8.074C12.707 5.0243 17.1877 4.75798 20.3302 7.27502L22.6147 4.83814C26.6804 0.501849 32.6636 -1.07502 38.1547 0.742655L39.6736 1.24543ZM40.5422 6.76441C40.2618 5.80254 39.5555 5.04948 38.6536 4.75093L37.1347 4.24815C32.8639 2.83442 28.2102 4.06088 25.0481 7.43354L12.668 20.6384C12.444 20.8772 12.444 21.2645 12.668 21.5034L24.8421 34.4884C25.066 34.7272 25.4292 34.7272 25.6533 34.4884L38.0308 21.2866C41.194 17.9125 42.3433 12.9465 41.0157 8.38996L40.5422 6.76441ZM9.8318 40.1088C10.5037 39.3921 10.5037 38.2301 9.8318 37.5134C9.15984 36.7966 8.07041 36.7966 7.39847 37.5134L1.7207 43.5693C1.04876 44.2861 1.04876 45.4481 1.7207 46.1648C2.39266 46.8816 3.48209 46.8816 4.15403 46.1648L9.8318 40.1088ZM5.37062 32.7552C6.04255 33.4719 6.04255 34.634 5.37062 35.3507L2.93729 37.946C2.26533 38.6627 1.17591 38.6627 0.50397 37.946C-0.16799 37.2293 -0.16799 36.0672 0.50397 35.3507L2.93729 32.7552C3.60923 32.0385 4.69866 32.0385 5.37062 32.7552ZM14.2882 44.8721C14.9602 44.1554 14.9602 42.9936 14.2883 42.2769C13.6163 41.5601 12.5269 41.5601 11.8549 42.2769L9.42633 44.867C8.75437 45.5837 8.75437 46.7457 9.4263 47.4625C10.0982 48.1792 11.1877 48.1792 11.8596 47.4625L14.2882 44.8721Z" fill="#FF5F0F"/>
</svg>
